<?xml version="1.0" encoding="UTF-8"?><svg id="LOGOS" xmlns="http://www.w3.org/2000/svg" viewBox="0 0 792 306"><defs><style>.cls-1{fill:none;}.cls-2{fill:#010101;fill-rule:evenodd;}</style></defs><g id="HORIZ_BLACK_"><path class="cls-2" d="M152.56,178.64c13.72,0,24.85-11.13,24.85-24.85s-11.13-24.85-24.85-24.85-24.85,11.13-24.85,24.85,11.13,24.85,24.85,24.85ZM136.27,141.17c3.13-4.35,8.33-7.72,16.29-7.72s13.16,3.37,16.29,7.72c3.05,4.23,4.04,9.24,4.04,12.62,0,1.43-.34,3.62-1.68,5.53-1.43,2.04-3.83,3.51-7.36,3.51-2.34,0-3.93-1.2-4.94-2.61-3.55,3.51-9.27,3.48-12.78-.07-3.51-3.55-3.48-9.27.07-12.78,3.55-3.51,9.27-3.48,12.78.07,1.67,1.69,2.61,3.98,2.61,6.36,0,.91.19,2.24.68,3.26.46.96.96,1.26,1.58,1.26,2.12,0,3.11-.79,3.66-1.58.64-.91.86-2.11.86-2.94,0-2.65-.81-6.68-3.19-9.98-2.29-3.18-6.13-5.84-12.62-5.84s-10.33,2.65-12.62,5.84c-2.38,3.3-3.19,7.33-3.19,9.98s.81,6.68,3.19,9.98c2.29,3.18,6.13,5.84,12.62,5.84,4.47,0,7.65-1.26,9.91-3.01.97-.79,2.39-.64,3.18.33.79.97.64,2.39-.33,3.18-.03.02-.06.04-.09.07-3.12,2.42-7.29,3.96-12.68,3.96-7.97,0-13.16-3.37-16.29-7.72-3.05-4.23-4.04-9.24-4.04-12.62s.99-8.38,4.04-12.62ZM152.56,149.27c2.5,0,4.52,2.02,4.52,4.52s-2.02,4.52-4.52,4.52-4.52-2.02-4.52-4.52,2.02-4.52,4.52-4.52Z"/><path d="M192.44,113.6c-8.9-8.91-18.47-17.12-28.63-24.56,6.95-4.2,14.24-7.81,21.8-10.77,2-.75,3.88-1.32,5.76-1.88,5.03,6.08,14.03,6.93,20.11,1.91,1.58-1.31,2.86-2.94,3.76-4.79,4.47.41,8.69,2.25,12.03,5.26,7.45,7.45,7.64,22.49.63,41.22,3.07,4.07,5.89,8.21,8.46,12.53,1.06-2.51,2.19-4.95,3.07-7.39,9.21-24.12,8.02-43.85-3.32-55-5.67-5.37-13.06-8.57-20.86-9.02-3.43-7.14-12-10.16-19.14-6.73-4.06,1.95-6.97,5.69-7.86,10.11-2.32.69-4.64,1.38-7.08,2.32-10.01,3.94-19.6,8.87-28.63,14.72-9.05-5.92-18.66-10.94-28.69-14.97-24.12-9.15-43.85-8.02-54.94,3.32-10.4,10.46-12.09,27.81-5.2,49.24-4.84,6.23-3.72,15.2,2.51,20.04,2.15,1.67,4.74,2.7,7.45,2.95,2,3.82,4.2,7.64,6.64,11.4-5.82,9.05-10.71,18.66-14.6,28.69-9.21,24.06-8.02,43.85,3.32,54.94,6.97,6.51,16.28,9.93,25.81,9.46,10.01-.33,19.87-2.45,29.13-6.26,10.02-3.95,19.63-8.88,28.69-14.72,8.97,5.97,18.52,11.03,28.5,15.1,7.34,2.89,15.03,4.78,22.86,5.64,3.39,7.2,11.97,10.29,19.17,6.91,4.89-2.3,8.08-7.14,8.27-12.54,1.66-1.03,3.22-2.22,4.64-3.57,11.34-11.34,12.53-30.88,3.32-54.94-10.8-25.84-26.79-49.18-46.98-68.59ZM119.4,228.74c-18.79,7.2-34.14,7.08-41.66-.5-7.52-7.58-7.71-22.68-.44-41.6,2.94-7.56,6.53-14.85,10.71-21.8,7.46,10.12,15.67,19.67,24.56,28.57,2.69,2.69,5.45,5.32,8.21,7.83,3.76-1.92,7.58-4.11,11.46-6.58-3.63-3.26-7.27-6.26-10.77-10.09-14.1-13.85-26.2-29.6-35.96-46.79,5.5-5.7,5.34-14.78-.36-20.28-2.69-2.6-6.29-4.04-10.04-4.02-4.7-15.66-3.88-28.13,2.69-34.7,4.68-4.12,10.82-6.2,17.04-5.76,8.45.28,16.79,2.06,24.62,5.26,7.56,2.97,14.85,6.57,21.8,10.77-10.16,7.44-19.73,15.65-28.63,24.56-2.76,2.76-5.45,5.64-8.08,8.52,1.89,3.97,3.98,7.84,6.26,11.59,3.38-3.82,6.83-7.58,10.52-11.28,9.64-9.63,20.12-18.37,31.32-26.12,11.08,7.78,21.46,16.52,31.01,26.12,9.63,9.64,18.37,20.12,26.12,31.32-7.77,11.19-16.51,21.67-26.12,31.32-18.23,18.78-40.1,33.64-64.27,43.66h0ZM227.27,228.17l-1,.81c-5.99-5.08-14.96-4.34-20.04,1.65-.74.87-1.37,1.83-1.88,2.86-6.44-.83-12.75-2.45-18.79-4.82-7.57-2.94-14.86-6.55-21.8-10.77,10.16-7.44,19.73-15.65,28.63-24.56,8.92-8.86,17.13-18.41,24.56-28.57,4.2,6.95,7.81,14.24,10.77,21.8,7.14,18.98,7.14,34.14-.44,41.6Z"/><path class="cls-1" d="M40.66,40.24h225.52v225.52H40.66V40.24Z"/><path d="M267.01,182.96l23.24-53.55h.56l23.24,53.55h-11.76l-14.84-37.66,7.35-5.04-17.78,42.7h-10.01ZM282.9,164.34h15.47l3.57,8.54h-22.19l3.15-8.54Z"/><path d="M322.24,131.44h34.72v9.8h-12.53v41.72h-10.15v-41.72h-12.04v-9.8Z"/><path d="M401.97,141.38c-1.73-.89-3.62-1.66-5.67-2.31-2.05-.65-4.06-.98-6.02-.98-2.71,0-4.87.63-6.48,1.89-1.61,1.26-2.42,2.94-2.42,5.04,0,1.59.51,2.93,1.54,4.02,1.03,1.1,2.38,2.04,4.06,2.83,1.68.79,3.43,1.54,5.25,2.24,1.59.61,3.15,1.28,4.69,2.03,1.54.75,2.93,1.68,4.17,2.8,1.24,1.12,2.22,2.5,2.94,4.13.72,1.63,1.08,3.66,1.08,6.09,0,2.66-.67,5.09-2,7.28-1.33,2.19-3.23,3.92-5.71,5.18-2.47,1.26-5.41,1.89-8.82,1.89-2.24,0-4.38-.26-6.4-.77-2.03-.51-3.91-1.18-5.64-2-1.73-.82-3.27-1.67-4.62-2.55l3.01-5.32c1.12.79,2.4,1.55,3.85,2.27,1.45.72,2.96,1.31,4.55,1.75,1.59.44,3.13.67,4.62.67,1.59,0,3.16-.29,4.73-.88,1.56-.58,2.86-1.48,3.89-2.69,1.03-1.21,1.54-2.82,1.54-4.83,0-1.73-.46-3.16-1.37-4.31-.91-1.14-2.11-2.12-3.6-2.94-1.49-.82-3.08-1.55-4.76-2.21-1.59-.61-3.2-1.27-4.83-1.99-1.63-.72-3.15-1.61-4.55-2.66s-2.52-2.35-3.36-3.88c-.84-1.54-1.26-3.41-1.26-5.6,0-2.66.64-4.98,1.93-6.97,1.28-1.98,3.04-3.55,5.28-4.69,2.24-1.14,4.81-1.76,7.7-1.85,3.27,0,6.15.4,8.64,1.19,2.5.79,4.7,1.77,6.62,2.94l-2.59,5.18Z"/><path d="M462.1,179.18c-.84.56-1.98,1.19-3.43,1.89-1.45.7-3.14,1.28-5.07,1.75-1.94.47-4.05.7-6.33.7-3.92-.05-7.46-.75-10.61-2.1-3.15-1.35-5.82-3.2-8.01-5.53-2.19-2.33-3.88-5.03-5.08-8.08-1.19-3.06-1.79-6.31-1.79-9.77,0-3.78.62-7.27,1.86-10.46,1.24-3.2,2.97-5.97,5.21-8.33,2.24-2.36,4.89-4.19,7.94-5.5,3.06-1.31,6.41-1.96,10.05-1.96,3.03,0,5.79.41,8.26,1.23,2.47.82,4.6,1.78,6.37,2.9l-2.73,6.3c-1.4-.93-3.09-1.82-5.08-2.66-1.98-.84-4.19-1.26-6.61-1.26s-4.81.49-7,1.47c-2.19.98-4.13,2.36-5.81,4.13-1.68,1.77-3,3.84-3.96,6.19-.96,2.36-1.43,4.89-1.43,7.6s.43,5.31,1.29,7.67c.86,2.36,2.1,4.4,3.71,6.12,1.61,1.73,3.56,3.08,5.84,4.06,2.29.98,4.85,1.47,7.7,1.47,2.57,0,4.85-.4,6.86-1.19,2.01-.79,3.66-1.68,4.97-2.66l2.87,6.02Z"/><path d="M481.91,132.35h6.79v50.61h-6.79v-50.61Z"/><path d="M511.66,132.35h32.9v6.51h-26.11v15.4h23.31v6.51h-23.31v15.68h27.09v6.51h-33.88v-50.61Z"/><path d="M609.52,184.57l-39.13-39.69,1.96.49.14,37.59h-6.79v-52.15h.35l38.71,39.83-1.61-.35-.14-37.94h6.72v52.22h-.21Z"/><path d="M669.86,179.18c-.84.56-1.98,1.19-3.43,1.89-1.45.7-3.14,1.28-5.07,1.75-1.94.47-4.05.7-6.33.7-3.92-.05-7.46-.75-10.61-2.1-3.15-1.35-5.82-3.2-8.01-5.53-2.19-2.33-3.88-5.03-5.08-8.08-1.19-3.06-1.79-6.31-1.79-9.77,0-3.78.62-7.27,1.86-10.46,1.24-3.2,2.97-5.97,5.21-8.33,2.24-2.36,4.89-4.19,7.94-5.5,3.06-1.31,6.41-1.96,10.05-1.96,3.03,0,5.79.41,8.26,1.23,2.47.82,4.6,1.78,6.37,2.9l-2.73,6.3c-1.4-.93-3.09-1.82-5.08-2.66-1.98-.84-4.19-1.26-6.61-1.26s-4.81.49-7,1.47c-2.19.98-4.13,2.36-5.81,4.13-1.68,1.77-3,3.84-3.96,6.19-.96,2.36-1.43,4.89-1.43,7.6s.43,5.31,1.29,7.67c.86,2.36,2.1,4.4,3.71,6.12,1.61,1.73,3.56,3.08,5.84,4.06,2.29.98,4.85,1.47,7.7,1.47,2.57,0,4.85-.4,6.86-1.19,2.01-.79,3.66-1.68,4.97-2.66l2.87,6.02Z"/><path d="M689.67,132.35h32.9v6.51h-26.11v15.4h23.31v6.51h-23.31v15.68h27.09v6.51h-33.88v-50.61Z"/></g></svg>